<?xml version="1.0" encoding="utf-8" standalone="yes"?>
<!DOCTYPE svg PUBLIC "-//W3C//DTD SVG 1.1//EN" "http://www.w3.org/Graphics/SVG/1.1/DTD/svg11.dtd">
<svg width="888" height="288" viewBox="0 0 888 288" style="fill:none;stroke:none;fill-rule:evenodd;clip-rule:evenodd;stroke-linecap:round;stroke-linejoin:round;stroke-miterlimit:1.5;" version="1.1" xmlns="http://www.w3.org/2000/svg" xmlns:xlink="http://www.w3.org/1999/xlink"><style id="fontImports">@import url("https://fonts.googleapis.com/css2?family=Roboto:wght@400;700&amp;display=block");</style><g id="blend" style="mix-blend-mode:multiply"><g id="g-root-4.cu_sy_zpo1co1mavp54-fill" data-item-order="-64508" data-item-id="4.cu_sy_zpo1co1mavp54" data-item-class="ScenePart Indexed Fill Stroke ColorStrokeBlack" data-item-index="4" data-renderer-id="0" transform="translate(466, 164)"><g id="4.cu_sy_zpo1co1mavp54-fill" stroke="none" fill="url(#gradient-ffeb38-392015901)"><g><path d="M 81.469 86.464C 81.815 87.751 82 89.104 82 90.5C 82 99.06 75.06 106 66.5 106C 63.433 106 60.575 105.109 58.169 103.573C 56.496 104.481 54.561 105 52.5 105C 49.212 105 46.247 103.68 44.151 101.565C 43.147 101.849 42.09 102 41 102C 34.373 102 29 96.404 29 89.5C 29 88.374 29.143 87.283 29.411 86.246C 27.314 84.326 26 81.566 26 78.5C 26 74.9 27.812 71.723 30.574 69.831C 29.569 67.943 29 65.788 29 63.5C 29 56.044 35.044 50 42.5 50C 43.036 50 43.566 50.031 44.086 50.092C 47.712 47.518 52.175 46 57 46C 62.757 46 67.997 48.161 71.918 51.698C 73.024 51.248 74.233 51 75.5 51C 80.747 51 85 55.253 85 60.5C 85 62.899 84.111 65.09 82.644 66.762C 84.733 69.227 86 72.46 86 76C 86 80.162 84.249 83.899 81.469 86.464ZM 18 34C 18 38.418 21.582 42 26 42C 30.418 42 34 38.418 34 34C 34 29.582 30.418 26 26 26C 21.582 26 18 29.582 18 34M 18 14C 18 16.209 16.209 18 14 18C 11.791 18 10 16.209 10 14C 10 11.791 11.791 10 14 10C 16.209 10 18 11.791 18 14"></path></g></g></g><g id="g-root-3.cu_sy_zpo1co1mavp53-fill" data-item-order="-64506" data-item-id="3.cu_sy_zpo1co1mavp53" data-item-class="ScenePart Indexed Fill Stroke ColorStrokeBlack" data-item-index="3" data-renderer-id="0" transform="translate(326, 164)"><g id="3.cu_sy_zpo1co1mavp53-fill" stroke="none" fill="url(#gradient-d685fb-249354988)"><g><path d="M 28.274 49.698C 27.102 49.247 25.83 49 24.5 49C 18.701 49 14 53.701 14 59.5C 14 60.412 14.116 61.297 14.335 62.141C 11.636 65.308 10 69.457 10 74C 10 79.691 12.567 84.764 16.576 88.063C 16.203 89.14 16 90.296 16 91.5C 16 97.299 20.701 102 26.5 102C 27.29 102 28.06 101.913 28.8 101.747C 31.354 104.365 34.979 106 39 106C 43.501 106 47.507 103.951 50.068 100.768C 51.652 102.158 53.727 103 56 103C 60.971 103 65 98.971 65 94C 65 93.139 64.879 92.307 64.654 91.519C 67.982 87.645 70 82.564 70 77C 70 72.663 68.773 68.618 66.656 65.211C 66.881 64.176 67 63.102 67 62C 67 53.716 60.284 47 52 47C 50.211 47 48.495 47.313 46.904 47.888C 44.542 46.682 41.853 46 39 46C 34.933 46 31.199 47.386 28.274 49.698ZM 62 34C 62 38.418 65.582 42 70 42C 74.418 42 78 38.418 78 34C 78 29.582 74.418 26 70 26C 65.582 26 62 29.582 62 34M 86 14C 86 16.209 84.209 18 82 18C 79.791 18 78 16.209 78 14C 78 11.791 79.791 10 82 10C 84.209 10 86 11.791 86 14"></path></g></g></g><g id="g-root-2.cu_sy_zpo1co1mavp52-fill" data-item-order="-64504" data-item-id="2.cu_sy_zpo1co1mavp52" data-item-class="ScenePart Indexed Fill Stroke ColorStrokeBlack" data-item-index="2" data-renderer-id="0" transform="translate(498, 68)"><g id="2.cu_sy_zpo1co1mavp52-fill" stroke="none" fill="url(#gradient-44d0ff-453494305)"><g><path d="M 83 70C 87.95 70 92.518 68.402 96.194 65.706C 97.782 66.533 99.586 67 101.5 67C 107.851 67 113 61.851 113 55.5C 113 52.514 111.862 49.794 109.996 47.75C 112.435 45.827 114 42.846 114 39.5C 114 37.08 113.181 34.852 111.806 33.076C 111.934 32.237 112 31.376 112 30.5C 112 21.387 104.837 14 96 14C 95.01 14 94.04 14.093 93.099 14.27C 90.011 11.613 85.95 10 81.5 10C 76.933 10 72.774 11.7 69.658 14.483C 68.661 14.169 67.6 14 66.5 14C 60.701 14 56 18.701 56 24.5C 56 27.072 56.925 29.428 58.46 31.254C 56.915 33.417 56 36.098 56 39C 56 41.302 56.575 43.464 57.584 45.339C 55.359 47.746 54 50.964 54 54.5C 54 61.956 60.044 68 67.5 68C 69.122 68 70.677 67.714 72.118 67.19C 75.327 68.978 79.041 70 83 70ZM 28 40C 28 44.418 31.582 48 36 48C 40.418 48 44 44.418 44 40C 44 35.582 40.418 32 36 32C 31.582 32 28 35.582 28 40M 18 40C 18 42.209 16.209 44 14 44C 11.791 44 10 42.209 10 40C 10 37.791 11.791 36 14 36C 16.209 36 18 37.791 18 40"></path></g></g></g><g id="g-root-1.cu_sy_144v2e01mavril-fill" data-item-order="-64502" data-item-id="1.cu_sy_144v2e01mavril" data-item-class="ScenePart Indexed Indexed_1 Fill Stroke ColorStrokeBlack" data-item-index="1" data-renderer-id="0" transform="translate(266, 68)"><defs><linearGradient id="gradient-ffeb38-392015901" x2="0" y2="1"><stop offset="0" stop-color="#fff066"></stop><stop offset="1" stop-color="#FFE60A"></stop></linearGradient><linearGradient id="gradient-d685fb-249354988" x2="0" y2="1"><stop offset="0" stop-color="#de9ffb"></stop><stop offset="1" stop-color="#CD6AFB"></stop></linearGradient><linearGradient id="gradient-44d0ff-453494305" x2="0" y2="1"><stop offset="0" stop-color="#6ddafe"></stop><stop offset="1" stop-color="#1AC6FF"></stop></linearGradient><linearGradient id="gradient-b8e45c-154771520" x2="0" y2="1"><stop offset="0" stop-color="#c8ea80"></stop><stop offset="1" stop-color="#A8DD38"></stop></linearGradient></defs><g id="1.cu_sy_144v2e01mavril-fill" stroke="none" fill="url(#gradient-b8e45c-154771520)"><g><path d="M 20.598 19C 20.565 19 20.533 19 20.5 19C 14.701 19 10 23.701 10 29.5C 10 32.574 11.321 35.339 13.426 37.259C 13.147 38.459 13 39.712 13 41C 13 41.745 13.049 42.478 13.145 43.196C 11.788 45.301 11 47.809 11 50.5C 11 57.956 17.044 64 24.5 64C 24.847 64 25.19 63.987 25.53 63.961C 29.172 67.682 34.308 70 40 70C 45.641 70 50.737 67.723 54.373 64.059C 55.621 64.662 57.021 65 58.5 65C 63.747 65 68 60.747 68 55.5C 68 52.628 66.726 50.055 64.712 48.313C 67.948 45.469 70 41.232 70 36.5C 70 32.425 68.478 28.717 65.99 25.95C 65.996 25.801 66 25.651 66 25.5C 66 20.253 61.747 16 56.5 16C 55.92 16 55.353 16.052 54.802 16.151C 50.681 12.338 45.12 10 39 10C 31.475 10 24.794 13.535 20.598 19ZM 80 40C 80 44.418 83.582 48 88 48C 92.418 48 96 44.418 96 40C 96 35.582 92.418 32 88 32C 83.582 32 80 35.582 80 40M 114 40C 114 42.209 112.209 44 110 44C 107.791 44 106 42.209 106 40C 106 37.791 107.791 36 110 36C 112.209 36 114 37.791 114 40"></path></g></g></g><g id="g-root-tx_whichloo_vbpyhk1mavoxt-fill" data-item-order="0" data-item-id="tx_whichloo_vbpyhk1mavoxt" data-item-class="Label Stroke SceneTarget SceneTitle ColorFillBlack ColorStrokeBlack" data-item-index="none" data-renderer-id="0" transform="translate(302, 2)"><g id="tx_whichloo_vbpyhk1mavoxt-fill" stroke="none" fill="#484848"><g><text style="font: bold 30px Roboto, sans-serif; white-space: pre;"><tspan x="14.7" y="45" dominant-baseline="ideographic">Which loop to use?</tspan></text></g></g></g><g id="g-root-tx_while_zqwziw1mavrbc-fill" data-item-order="0" data-item-id="tx_while_zqwziw1mavrbc" data-item-class="Label Stroke ColorFillBlack" data-item-index="none" data-renderer-id="0" transform="translate(158, 34)"><g id="tx_while_zqwziw1mavrbc-fill" stroke="none" fill="#484848"><g><text style="font: bold 20px Roboto, sans-serif; white-space: pre;"><tspan x="20.69" y="34" dominant-baseline="ideographic">while</tspan></text></g></g></g><g id="g-root-tx_dowhile_1hi700o1mavoy6-fill" data-item-order="0" data-item-id="tx_dowhile_1hi700o1mavoy6" data-item-class="Label Stroke ColorFillBlack" data-item-index="none" data-renderer-id="0" transform="translate(674, 22)"><g id="tx_dowhile_1hi700o1mavoy6-fill" stroke="none" fill="#484848"><g><text style="font: bold 20px Roboto, sans-serif; white-space: pre;"><tspan x="12" y="34" dominant-baseline="ideographic">do while</tspan></text></g></g></g><g id="g-root-tx_usewhent_146qhnc1mavqj3-fill" data-item-order="0" data-item-id="tx_usewhent_146qhnc1mavqj3" data-item-class="Label Stroke SceneTarget Indexed Indexed_1 ColorStrokeBlack" data-item-index="1" data-renderer-id="0" transform="translate(2, 62)"><g id="tx_usewhent_146qhnc1mavqj3-fill" stroke="none" fill="#484848"><g><text style="font: 20px Roboto, sans-serif; white-space: pre;"><tspan x="52.58" y="34" dominant-baseline="ideographic">Use when the condition </tspan><tspan x="15.09" y="58" dominant-baseline="ideographic">needs to be checked before </tspan><tspan x="105.16" y="82" dominant-baseline="ideographic">entering the loop.</tspan></text></g></g></g><g id="g-root-tx_usewhent_1ut11aw1mavqj1-fill" data-item-order="0" data-item-id="tx_usewhent_1ut11aw1mavqj1" data-item-class="Label Stroke SceneTarget Indexed ColorStrokeBlack" data-item-index="2" data-renderer-id="0" transform="translate(614, 50)"><g id="tx_usewhent_1ut11aw1mavqj1-fill" stroke="none" fill="#484848"><g><text style="font: 20px Roboto, sans-serif; white-space: pre;"><tspan x="12" y="34" dominant-baseline="ideographic">Use when the condition </tspan><tspan x="12" y="58" dominant-baseline="ideographic">needs to be checked after </tspan><tspan x="12" y="82" dominant-baseline="ideographic">executing the loop at least </tspan><tspan x="12" y="106" dominant-baseline="ideographic">once.</tspan></text></g></g></g><g id="g-root-face_18eftnc1mayi9x-fill" data-item-order="0" data-item-id="face_18eftnc1mayi9x" data-item-class="Icon Stroke SceneTarget ColorFillBlack ColorStrokeBlack" data-item-index="0" data-renderer-id="0" transform="translate(398, 62)"></g><g id="g-root-squa_m97qag1mayjnt-fill" data-item-order="0" data-item-id="squa_m97qag1mayjnt" data-item-class="Icon Stroke SceneTarget Indexed Indexed_1 InsideFill InsideColorFill ColorStrokeBlack" data-item-index="1" data-renderer-id="0" transform="translate(278, 80)"></g><g id="g-root-2_v4uqjc1mayiv4-fill" data-item-order="0" data-item-id="2_v4uqjc1mayiv4" data-item-class="Icon Stroke SceneTarget Indexed InsideFill InsideColorFill ColorStrokeBlack" data-item-index="2" data-renderer-id="0" transform="translate(554, 80)"></g><g id="g-root-tx_for_4njzko1mavpxg-fill" data-item-order="0" data-item-id="tx_for_4njzko1mavpxg" data-item-class="Label Stroke ColorFillBlack" data-item-index="none" data-renderer-id="0" transform="translate(170, 166)"><g id="tx_for_4njzko1mavpxg-fill" stroke="none" fill="#484848"><g><text style="font: bold 20px Roboto, sans-serif; white-space: pre;"><tspan x="18.22" y="34" dominant-baseline="ideographic">for</tspan></text></g></g></g><g id="g-root-tx_foreach_me7izc1mavqq2-fill" data-item-order="0" data-item-id="tx_foreach_me7izc1mavqq2" data-item-class="Label Stroke ColorFillBlack" data-item-index="none" data-renderer-id="0" transform="translate(626, 178)"><g id="tx_foreach_me7izc1mavqq2-fill" stroke="none" fill="#484848"><g><text style="font: bold 20px Roboto, sans-serif; white-space: pre;"><tspan x="12" y="34" dominant-baseline="ideographic">for each</tspan></text></g></g></g><g id="g-root-tx_usewhent_93dhp41mavp57-fill" data-item-order="0" data-item-id="tx_usewhent_93dhp41mavp57" data-item-class="Label Stroke SceneTarget Indexed ColorStrokeBlack" data-item-index="3" data-renderer-id="0" transform="translate(62, 194)"><g id="tx_usewhent_93dhp41mavp57-fill" stroke="none" fill="#484848"><g><text style="font: 20px Roboto, sans-serif; white-space: pre;"><tspan x="15.09" y="34" dominant-baseline="ideographic">Use when the loop needs to </tspan><tspan x="17.42" y="58" dominant-baseline="ideographic">iterate a specific number of </tspan><tspan x="204.91" y="82" dominant-baseline="ideographic">times.</tspan></text></g></g></g><g id="g-root-equa_zko8ns1mayi2v-fill" data-item-order="0" data-item-id="equa_zko8ns1mayi2v" data-item-class="Icon Stroke SceneTarget Indexed InsideFill InsideColorFill ColorStrokeBlack" data-item-index="3" data-renderer-id="0" transform="translate(338, 212)"></g><g id="g-root-add_v2zba01mayjuu-fill" data-item-order="0" data-item-id="add_v2zba01mayjuu" data-item-class="Icon Stroke SceneTarget Indexed InsideFill InsideColorFill ColorStrokeBlack" data-item-index="4" data-renderer-id="0" transform="translate(494, 212)"></g><g id="g-root-tx_usewheni_v9uj881mavpxd-fill" data-item-order="0" data-item-id="tx_usewheni_v9uj881mavpxd" data-item-class="Label Stroke SceneTarget Indexed ColorStrokeBlack" data-item-index="4" data-renderer-id="0" transform="translate(554, 206)"><g id="tx_usewheni_v9uj881mavpxd-fill" stroke="none" fill="#484848"><g><text style="font: 20px Roboto, sans-serif; white-space: pre;"><tspan x="12" y="34" dominant-baseline="ideographic">Use when iterating over a </tspan><tspan x="12" y="58" dominant-baseline="ideographic">collection of elements.</tspan></text></g></g></g><g id="g-root-4.cu_sy_zpo1co1mavp54-stroke" data-item-order="-64508" data-item-id="4.cu_sy_zpo1co1mavp54" data-item-class="ScenePart Indexed Fill Stroke ColorStrokeBlack" data-item-index="4" data-renderer-id="0" transform="translate(466, 164)"><g id="4.cu_sy_zpo1co1mavp54-stroke" fill="none" stroke-linecap="round" stroke-linejoin="round" stroke-miterlimit="1.5" stroke="#484848" stroke-width="2"><g><path d="M 81.469 86.464C 81.815 87.751 82 89.104 82 90.5C 82 99.06 75.06 106 66.5 106C 63.433 106 60.575 105.109 58.169 103.573C 56.496 104.481 54.561 105 52.5 105C 49.212 105 46.247 103.68 44.151 101.565C 43.147 101.849 42.09 102 41 102C 34.373 102 29 96.404 29 89.5C 29 88.374 29.143 87.283 29.411 86.246C 27.314 84.326 26 81.566 26 78.5C 26 74.9 27.812 71.723 30.574 69.831C 29.569 67.943 29 65.788 29 63.5C 29 56.044 35.044 50 42.5 50C 43.036 50 43.566 50.031 44.086 50.092C 47.712 47.518 52.175 46 57 46C 62.757 46 67.997 48.161 71.918 51.698C 73.024 51.248 74.233 51 75.5 51C 80.747 51 85 55.253 85 60.5C 85 62.899 84.111 65.09 82.644 66.762C 84.733 69.227 86 72.46 86 76C 86 80.162 84.249 83.899 81.469 86.464ZM 18 34C 18 38.418 21.582 42 26 42C 30.418 42 34 38.418 34 34C 34 29.582 30.418 26 26 26C 21.582 26 18 29.582 18 34M 18 14C 18 16.209 16.209 18 14 18C 11.791 18 10 16.209 10 14C 10 11.791 11.791 10 14 10C 16.209 10 18 11.791 18 14"></path></g></g></g><g id="g-root-3.cu_sy_zpo1co1mavp53-stroke" data-item-order="-64506" data-item-id="3.cu_sy_zpo1co1mavp53" data-item-class="ScenePart Indexed Fill Stroke ColorStrokeBlack" data-item-index="3" data-renderer-id="0" transform="translate(326, 164)"><g id="3.cu_sy_zpo1co1mavp53-stroke" fill="none" stroke-linecap="round" stroke-linejoin="round" stroke-miterlimit="1.5" stroke="#484848" stroke-width="2"><g><path d="M 28.274 49.698C 27.102 49.247 25.83 49 24.5 49C 18.701 49 14 53.701 14 59.5C 14 60.412 14.116 61.297 14.335 62.141C 11.636 65.308 10 69.457 10 74C 10 79.691 12.567 84.764 16.576 88.063C 16.203 89.14 16 90.296 16 91.5C 16 97.299 20.701 102 26.5 102C 27.29 102 28.06 101.913 28.8 101.747C 31.354 104.365 34.979 106 39 106C 43.501 106 47.507 103.951 50.068 100.768C 51.652 102.158 53.727 103 56 103C 60.971 103 65 98.971 65 94C 65 93.139 64.879 92.307 64.654 91.519C 67.982 87.645 70 82.564 70 77C 70 72.663 68.773 68.618 66.656 65.211C 66.881 64.176 67 63.102 67 62C 67 53.716 60.284 47 52 47C 50.211 47 48.495 47.313 46.904 47.888C 44.542 46.682 41.853 46 39 46C 34.933 46 31.199 47.386 28.274 49.698ZM 62 34C 62 38.418 65.582 42 70 42C 74.418 42 78 38.418 78 34C 78 29.582 74.418 26 70 26C 65.582 26 62 29.582 62 34M 86 14C 86 16.209 84.209 18 82 18C 79.791 18 78 16.209 78 14C 78 11.791 79.791 10 82 10C 84.209 10 86 11.791 86 14"></path></g></g></g><g id="g-root-2.cu_sy_zpo1co1mavp52-stroke" data-item-order="-64504" data-item-id="2.cu_sy_zpo1co1mavp52" data-item-class="ScenePart Indexed Fill Stroke ColorStrokeBlack" data-item-index="2" data-renderer-id="0" transform="translate(498, 68)"><g id="2.cu_sy_zpo1co1mavp52-stroke" fill="none" stroke-linecap="round" stroke-linejoin="round" stroke-miterlimit="1.5" stroke="#484848" stroke-width="2"><g><path d="M 83 70C 87.95 70 92.518 68.402 96.194 65.706C 97.782 66.533 99.586 67 101.5 67C 107.851 67 113 61.851 113 55.5C 113 52.514 111.862 49.794 109.996 47.75C 112.435 45.827 114 42.846 114 39.5C 114 37.08 113.181 34.852 111.806 33.076C 111.934 32.237 112 31.376 112 30.5C 112 21.387 104.837 14 96 14C 95.01 14 94.04 14.093 93.099 14.27C 90.011 11.613 85.95 10 81.5 10C 76.933 10 72.774 11.7 69.658 14.483C 68.661 14.169 67.6 14 66.5 14C 60.701 14 56 18.701 56 24.5C 56 27.072 56.925 29.428 58.46 31.254C 56.915 33.417 56 36.098 56 39C 56 41.302 56.575 43.464 57.584 45.339C 55.359 47.746 54 50.964 54 54.5C 54 61.956 60.044 68 67.5 68C 69.122 68 70.677 67.714 72.118 67.19C 75.327 68.978 79.041 70 83 70ZM 28 40C 28 44.418 31.582 48 36 48C 40.418 48 44 44.418 44 40C 44 35.582 40.418 32 36 32C 31.582 32 28 35.582 28 40M 18 40C 18 42.209 16.209 44 14 44C 11.791 44 10 42.209 10 40C 10 37.791 11.791 36 14 36C 16.209 36 18 37.791 18 40"></path></g></g></g><g id="g-root-1.cu_sy_144v2e01mavril-stroke" data-item-order="-64502" data-item-id="1.cu_sy_144v2e01mavril" data-item-class="ScenePart Indexed Indexed_1 Fill Stroke ColorStrokeBlack" data-item-index="1" data-renderer-id="0" transform="translate(266, 68)"><g id="1.cu_sy_144v2e01mavril-stroke" fill="none" stroke-linecap="round" stroke-linejoin="round" stroke-miterlimit="1.5" stroke="#484848" stroke-width="2"><g><path d="M 20.598 19C 20.565 19 20.533 19 20.5 19C 14.701 19 10 23.701 10 29.5C 10 32.574 11.321 35.339 13.426 37.259C 13.147 38.459 13 39.712 13 41C 13 41.745 13.049 42.478 13.145 43.196C 11.788 45.301 11 47.809 11 50.5C 11 57.956 17.044 64 24.5 64C 24.847 64 25.19 63.987 25.53 63.961C 29.172 67.682 34.308 70 40 70C 45.641 70 50.737 67.723 54.373 64.059C 55.621 64.662 57.021 65 58.5 65C 63.747 65 68 60.747 68 55.5C 68 52.628 66.726 50.055 64.712 48.313C 67.948 45.469 70 41.232 70 36.5C 70 32.425 68.478 28.717 65.99 25.95C 65.996 25.801 66 25.651 66 25.5C 66 20.253 61.747 16 56.5 16C 55.92 16 55.353 16.052 54.802 16.151C 50.681 12.338 45.12 10 39 10C 31.475 10 24.794 13.535 20.598 19ZM 80 40C 80 44.418 83.582 48 88 48C 92.418 48 96 44.418 96 40C 96 35.582 92.418 32 88 32C 83.582 32 80 35.582 80 40M 114 40C 114 42.209 112.209 44 110 44C 107.791 44 106 42.209 106 40C 106 37.791 107.791 36 110 36C 112.209 36 114 37.791 114 40"></path></g></g></g><g id="g-root-tx_whichloo_vbpyhk1mavoxt-stroke" data-item-order="0" data-item-id="tx_whichloo_vbpyhk1mavoxt" data-item-class="Label Stroke SceneTarget SceneTitle ColorFillBlack ColorStrokeBlack" data-item-index="none" data-renderer-id="0" transform="translate(302, 2)"></g><g id="g-root-tx_while_zqwziw1mavrbc-stroke" data-item-order="0" data-item-id="tx_while_zqwziw1mavrbc" data-item-class="Label Stroke ColorFillBlack" data-item-index="none" data-renderer-id="0" transform="translate(158, 34)"></g><g id="g-root-tx_dowhile_1hi700o1mavoy6-stroke" data-item-order="0" data-item-id="tx_dowhile_1hi700o1mavoy6" data-item-class="Label Stroke ColorFillBlack" data-item-index="none" data-renderer-id="0" transform="translate(674, 22)"></g><g id="g-root-tx_usewhent_146qhnc1mavqj3-stroke" data-item-order="0" data-item-id="tx_usewhent_146qhnc1mavqj3" data-item-class="Label Stroke SceneTarget Indexed Indexed_1 ColorStrokeBlack" data-item-index="1" data-renderer-id="0" transform="translate(2, 62)"></g><g id="g-root-tx_usewhent_1ut11aw1mavqj1-stroke" data-item-order="0" data-item-id="tx_usewhent_1ut11aw1mavqj1" data-item-class="Label Stroke SceneTarget Indexed ColorStrokeBlack" data-item-index="2" data-renderer-id="0" transform="translate(614, 50)"></g><g id="g-root-face_18eftnc1mayi9x-stroke" data-item-order="0" data-item-id="face_18eftnc1mayi9x" data-item-class="Icon Stroke SceneTarget ColorFillBlack ColorStrokeBlack" data-item-index="0" data-renderer-id="0" transform="translate(398, 62)"><g id="face_18eftnc1mayi9x-stroke" fill="none" stroke-linecap="round" stroke-linejoin="round" stroke-miterlimit="1.5" stroke="#484848" stroke-width="2"><g><path d="M 46.6 39.682C 43.6 36.682 37.6 35.182 34.6 38.182M 16.9 45.682C 16.6 44.482 16.6 43.282 16.6 41.782C 16.6 25.582 29.8 12.382 46 12.382C 62.2 12.382 75.4 25.582 75.4 41.782C 75.4 52.582 69.7 61.882 61 66.982M 40.45 77.8C 46.45 75.4 45.325 70.111 44.125 65.311L 53.677 61.612C 55.891 60.755 57.049 58.317 56.314 56.059L 56.314 56.059C 55.934 54.891 55.09 53.932 53.981 53.405C 52.871 52.878 51.594 52.831 50.449 53.275L 32.875 60.085C 31.375 60.685 29.575 59.485 29.575 57.985L 29.458 55.144C 29.41 53.986 28.884 52.901 28.006 52.146C 27.127 51.39 25.975 51.034 24.823 51.16L 24.823 51.16C 22.705 51.394 21.101 53.184 21.1 55.315L 21.1 67.585C 21.1 75.385 28.3 81.085 35.8 79.285C 35.8 79.285 38.95 78.4 40.45 77.8ZM 31.825 27.682C 31.204 27.682 30.7 27.178 30.7 26.557C 30.7 25.936 31.204 25.432 31.825 25.432M 31.825 27.682C 32.446 27.682 32.95 27.178 32.95 26.557C 32.95 25.936 32.446 25.432 31.825 25.432M 47.8 27.682C 47.179 27.682 46.675 27.178 46.675 26.557C 46.675 25.936 47.179 25.432 47.8 25.432M 47.8 27.682C 48.421 27.682 48.925 27.178 48.925 26.557C 48.925 25.936 48.421 25.432 47.8 25.432"></path></g></g></g><g id="g-root-squa_m97qag1mayjnt-stroke" data-item-order="0" data-item-id="squa_m97qag1mayjnt" data-item-class="Icon Stroke SceneTarget Indexed Indexed_1 InsideFill InsideColorFill ColorStrokeBlack" data-item-index="1" data-renderer-id="0" transform="translate(278, 80)"><g id="squa_m97qag1mayjnt-stroke" fill="none" stroke-linecap="round" stroke-linejoin="round" stroke-miterlimit="1.5" stroke="#484848" stroke-width="2"><g><path d="M 13.857 11.286L 42.143 11.286C 42.143 11.286 44.714 11.286 44.714 13.857L 44.714 42.143C 44.714 42.143 44.714 44.714 42.143 44.714L 13.857 44.714C 13.857 44.714 11.286 44.714 11.286 42.143L 11.286 13.857C 11.286 13.857 11.286 11.286 13.857 11.286M 26.714 28C 26.714 28.71 27.29 29.286 28 29.286C 28.71 29.286 29.286 28.71 29.286 28C 29.286 27.29 28.71 26.714 28 26.714C 27.29 26.714 26.714 27.29 26.714 28M 19 28C 19 28.71 19.576 29.286 20.286 29.286C 20.996 29.286 21.571 28.71 21.571 28C 21.571 27.29 20.996 26.714 20.286 26.714C 19.576 26.714 19 27.29 19 28M 34.429 28C 34.429 28.71 35.004 29.286 35.714 29.286C 36.424 29.286 37 28.71 37 28C 37 27.29 36.424 26.714 35.714 26.714C 35.004 26.714 34.429 27.29 34.429 28"></path></g></g></g><g id="g-root-2_v4uqjc1mayiv4-stroke" data-item-order="0" data-item-id="2_v4uqjc1mayiv4" data-item-class="Icon Stroke SceneTarget Indexed InsideFill InsideColorFill ColorStrokeBlack" data-item-index="2" data-renderer-id="0" transform="translate(554, 80)"><g id="2_v4uqjc1mayiv4-stroke" fill="none" stroke-linecap="round" stroke-linejoin="round" stroke-miterlimit="1.5" stroke="#484848" stroke-width="2"><g><path d="M 33.143 19L 33.143 13.857C 33.143 12.437 31.992 11.286 30.571 11.286L 25.429 11.286C 24.008 11.286 22.857 12.437 22.857 13.857L 22.857 19M 33.143 37L 33.143 42.143C 33.143 43.563 31.992 44.714 30.571 44.714L 25.429 44.714C 24.008 44.714 22.857 43.563 22.857 42.143L 22.857 37M 21.571 19L 34.429 19C 34.429 19 37 19 37 21.571L 37 34.429C 37 34.429 37 37 34.429 37L 21.571 37C 21.571 37 19 37 19 34.429L 19 21.571C 19 21.571 19 19 21.571 19"></path></g></g></g><g id="g-root-tx_for_4njzko1mavpxg-stroke" data-item-order="0" data-item-id="tx_for_4njzko1mavpxg" data-item-class="Label Stroke ColorFillBlack" data-item-index="none" data-renderer-id="0" transform="translate(170, 166)"></g><g id="g-root-tx_foreach_me7izc1mavqq2-stroke" data-item-order="0" data-item-id="tx_foreach_me7izc1mavqq2" data-item-class="Label Stroke ColorFillBlack" data-item-index="none" data-renderer-id="0" transform="translate(626, 178)"></g><g id="g-root-tx_usewhent_93dhp41mavp57-stroke" data-item-order="0" data-item-id="tx_usewhent_93dhp41mavp57" data-item-class="Label Stroke SceneTarget Indexed ColorStrokeBlack" data-item-index="3" data-renderer-id="0" transform="translate(62, 194)"></g><g id="g-root-equa_zko8ns1mayi2v-stroke" data-item-order="0" data-item-id="equa_zko8ns1mayi2v" data-item-class="Icon Stroke SceneTarget Indexed InsideFill InsideColorFill ColorStrokeBlack" data-item-index="3" data-renderer-id="0" transform="translate(338, 212)"><g id="equa_zko8ns1mayi2v-stroke" fill="none" stroke-linecap="round" stroke-linejoin="round" stroke-miterlimit="1.5" stroke="#484848" stroke-width="2"><g><path d="M 11.125 21.732L 44.875 21.732M 11.125 34.269L 44.875 34.269"></path></g></g></g><g id="g-root-add_v2zba01mayjuu-stroke" data-item-order="0" data-item-id="add_v2zba01mayjuu" data-item-class="Icon Stroke SceneTarget Indexed InsideFill InsideColorFill ColorStrokeBlack" data-item-index="4" data-renderer-id="0" transform="translate(494, 212)"><g id="add_v2zba01mayjuu-stroke" fill="none" stroke-linecap="round" stroke-linejoin="round" stroke-miterlimit="1.5" stroke="#484848" stroke-width="2"><g><path d="M 28 11.5L 28 44.5M 44.5 28L 11.5 28"></path></g></g></g><g id="g-root-tx_usewheni_v9uj881mavpxd-stroke" data-item-order="0" data-item-id="tx_usewheni_v9uj881mavpxd" data-item-class="Label Stroke SceneTarget Indexed ColorStrokeBlack" data-item-index="4" data-renderer-id="0" transform="translate(554, 206)"></g></g></svg>